<svg data-v-0dd9719b="" version="1.0" xmlns="http://www.w3.org/2000/svg" xmlns:xlink="http://www.w3.org/1999/xlink" width="100%" height="100%" viewBox="0 0 340.000000 250.000000" preserveAspectRatio="xMidYMid meet" color-interpolation-filters="sRGB" style="margin: auto;"> <rect data-v-0dd9719b="" x="0" y="0" width="100%" height="100%" fill="#fff" fill-opacity="1" class="background"></rect> <rect data-v-0dd9719b="" x="0" y="0" width="100%" height="100%" fill="url(#watermark)" fill-opacity="1" class="watermarklayer"></rect> <g data-v-0dd9719b="" fill="#333" class="icon-text-wrapper icon-svg-group iconsvg" transform="translate(49.209999084472656,94.95583534240723)"><g class="iconsvg-imagesvg" transform="translate(0,0)"><g><rect fill="#333" fill-opacity="0" stroke-width="2" x="0" y="0" width="60" height="60.08832984487196" class="image-rect"></rect> <svg x="0" y="0" width="60" height="60.08832984487196" filtersec="colorsb8616167076" class="image-svg-svg primary" style="overflow: visible;"><svg xmlns="http://www.w3.org/2000/svg" viewBox="-0.001293182373046875 0.002758026123046875 99.85157775878906 99.99821472167969"><g fill-rule="evenodd"><path d="M46.48 18.63l1.23-.71.62-.35.49-.27C81.4-.63 110.38 7.82 87.5 44.17c-.64 1-1.33 2.08-2.06 3.15-.86-1.47-1.76-2.94-2.73-4.41l-.34-.68q1-1.53 1.86-2.91c12.24-21-17.45-17.65-50.13 3.41l-1-2a29.42 29.42 0 0 1-1.46-3.48c-.79-2.27-1.44-4.44-1.93-6.47a112.67 112.67 0 0 1 12.8-9.7l1.49-.94.62-.38c.62-.39 1.23-.76 1.85-1.12zM18.59 53.76a109.86 109.86 0 0 0 12.85 17.76 47.53 47.53 0 0 0 8.69-3.3l2.92-1.46a141.32 141.32 0 0 1-13.54-26.32 74.21 74.21 0 0 1-3.22-10.75C23.38 15.68 28 8.86 41.72 17.92q2.53-1.61 5.11-3.05C10.23-9.6.2 16.24 15.34 47.61q1.47 3.05 3.25 6.15zm51.86 16.73c-.32-1.29-.71-2.69-1.19-4.23a48.42 48.42 0 0 0-2.76-6.82l-.45-.89c-34.1 22-64.95 24.71-48.27.51a94.943 94.943 0 0 1-3.12-5c-25.42 37.37.92 47.55 32.69 32a98.59 98.59 0 0 0 11.13-6.41 111 111 0 0 0 11.97-9.16zm11.11-23a110.89 110.89 0 0 0-12.84-17.74q-2.58.7-5.51 1.72l-6.1 3A141.2 141.2 0 0 1 70.7 61c.07.19.14.37.2.56s.19.49.27.73.2.56.29.83c.34 1 .65 1.91.93 2.83.06.18.11.36.16.54l.14.47c.06.22.13.44.19.65.05.17.1.34.14.51.33 1.21.61 2.37.84 3.49 2.91 14-1.73 20.8-15.42 11.75l-5.11 3C89.93 110.87 100 85 84.82 53.67q-1.47-3.04-3.26-6.14z" fill="#15355c"></path><path d="M49 13.47l-.48.27c-1.19-.79-2.35-1.53-3.48-2.21.61-.38 1.22-.75 1.83-1.1l1.23-.7.62-.36.49-.27C75.2-5.2 98.87-2.75 95.86 17.22 94.9 1.36 72.93.31 49 13.47zM10 53.22c.65 1.12 1.33 2.24 2 3.37.67-1.07 1.38-2.16 2.14-3.28q-1.74-3-3.18-6C.34 25.12 2.21 5.71 17.15 4.88-1.61 2.1-4.85 23 6.79 47.07q1.47 3.05 3.26 6.15zm37 36.6c-20.31 9.93-38.39 9.36-42.17-2.1 1.39 14.46 20.81 16.06 42.85 5.28 2.33-1.14 4.68-2.41 7.06-3.83q-1.43-.87-2.91-1.86-2.41 1.34-4.83 2.51zM93 54.1q-1.47-3-3.26-6.14l-1-1.67-.11.17c-.63 1-1.31 2-2 3.08.8 1.46 1.55 2.92 2.25 4.36 10.71 22.19 8.82 41.62-6.17 42.41C101.47 99 104.69 78.19 93.06 54.1z" fill="#009ed6"></path></g></svg></svg> <!----></g></g> <g transform="translate(67,13.444164276123047)"><g data-gra="path-name" fill-rule="" class="tp-name iconsvg-namesvg"><g transform="scale(1)"><g><path d="M12.37-13.85L8.97-13.85 8.97 0 4.49 0 4.49-33.2 13.88-33.2Q17.03-33.2 19.32-32.56 21.61-31.92 23.11-30.72 24.6-29.51 25.32-27.81 26.04-26.11 26.04-24L26.04-24Q26.04-22.24 25.48-20.71 24.93-19.18 23.87-17.97 22.82-16.75 21.3-15.89 19.78-15.03 17.86-14.59L17.86-14.59Q18.69-14.11 19.34-13.18L19.34-13.18 29.03 0 25.04 0Q23.81 0 23.24-0.95L23.24-0.95 14.62-12.81Q14.22-13.37 13.76-13.61 13.3-13.85 12.37-13.85L12.37-13.85ZM8.97-29.65L8.97-17.12 13.67-17.12Q15.64-17.12 17.13-17.59 18.63-18.07 19.63-18.94 20.64-19.81 21.15-21.01 21.66-22.22 21.66-23.68L21.66-23.68Q21.66-26.64 19.7-28.15 17.75-29.65 13.88-29.65L13.88-29.65 8.97-29.65ZM47.91-33.2L61.18 0 57.71 0Q57.1 0 56.73-0.3 56.36-0.6 56.18-1.07L56.18-1.07 53.07-9.08 38.18-9.08 35.07-1.07Q34.91-0.65 34.52-0.32 34.12 0 33.54 0L33.54 0 30.07 0 43.34-33.2 47.91-33.2ZM44.64-25.81L39.43-12.32 51.82-12.32 46.61-25.83Q46.1-27.08 45.61-28.96L45.61-28.96Q45.36-28.01 45.12-27.21 44.87-26.41 44.64-25.81L44.64-25.81ZM75.64-12.42L70.31-12.42 70.31 0 65.84 0 65.84-33.2 75.64-33.2Q78.79-33.2 81.12-32.47 83.44-31.74 84.97-30.39 86.5-29.05 87.25-27.15 88.01-25.25 88.01-22.91L88.01-22.91Q88.01-20.59 87.2-18.67 86.39-16.75 84.82-15.36 83.26-13.97 80.94-13.19 78.63-12.42 75.64-12.42L75.64-12.42ZM70.31-29.65L70.31-15.98 75.64-15.98Q77.56-15.98 79.03-16.49 80.5-17 81.5-17.92 82.49-18.83 83-20.11 83.51-21.38 83.51-22.91L83.51-22.91Q83.51-26.08 81.56-27.87 79.6-29.65 75.64-29.65L75.64-29.65 70.31-29.65ZM120.6-33.2L120.6 0 116.08 0 116.08-15.1 98.2-15.1 98.2 0 93.68 0 93.68-33.2 98.2-33.2 98.2-18.39 116.08-18.39 116.08-33.2 120.6-33.2ZM142.75-33.2L156.02 0 152.55 0Q151.95 0 151.58-0.3 151.2-0.6 151.02-1.07L151.02-1.07 147.92-9.08 133.02-9.08 129.92-1.07Q129.75-0.65 129.36-0.32 128.97 0 128.39 0L128.39 0 124.91 0 138.19-33.2 142.75-33.2ZM139.48-25.81L134.27-12.32 146.66-12.32 141.45-25.83Q140.94-27.08 140.46-28.96L140.46-28.96Q140.2-28.01 139.96-27.21 139.71-26.41 139.48-25.81L139.48-25.81ZM164.71-33.2L164.71-3.78 179.07-3.78 179.07 0 160.22 0 160.22-33.2 164.71-33.2Z" transform="translate(-4.489999771118164, 33.20000076293945)"></path></g> <!----> <!----> <!----> <!----> <!----> <!----> <!----></g></g> <!----></g></g><defs v-gra="od"></defs></svg>